Cover Image: 
http://www.shotpix.com/images/67387876336854335309.jpg

Genre :Adventure | Drama | Fantasy 
Language:English
IMDb:http://www.imdb.com/title/tt1324999/

PLOT:
The Quileute and the Volturi close in on expecting parents Edward and Bella, whose unborn child poses different threats to the wolf pack and vampire coven. 

Format : AVI
Format/Info : Audio Video Interleave
File size : 1.53 GiB
Duration : 1h 43mn
Overall bit rate : 2 121 Kbps
Writing library : VirtualDub build 32842/release

Video
ID : 0
Format : MPEG-4 Visual
Format profile : Simple@L3
Format settings, BVOP : No
Format settings, QPel : No
Format settings, GMC : No warppoints
Format settings, Matrix : Default (H.263)
Codec ID : XVID
Codec ID/Hint : XviD
Duration : 1h 43mn
Bit rate : 700 Kbps
Width : 640 pixels
Height : 256 pixels
Display aspect ratio : 2.500
Frame rate : 25.000 fps
Color space : YUV
Chroma subsampling : 4:2:0
Bit depth : 8 bits
Scan type : Progressive
Compression mode : Lossy
Bits/(Pixel*Frame) : 0.171
Stream size : 516 MiB (33%)
Writing library : XviD 64


Audio
ID : 1
Format : PCM
Format settings, Endianness : Little
Format settings, Sign : Signed
Codec ID : 1
Codec ID/Hint : Microsoft
Duration : 1h 43mn
Bit rate mode : Constant
Bit rate : 1 411.2 Kbps
Channel(s) : 2 channels
Sampling rate : 44.1 KHz
Bit depth : 16 bits
Stream size : 1.02 GiB (67%)
Interleave, duration : 40 ms (1.00 video frame)
Interleave, preload duration : 500 ms


Releaser's Note :
Video: TS Russian .. Thanks
Audio: Hope Thanks


The video source is from some Russians . I think its KiKteam but the russian Claim Its Theirs . Audio in the Cam Had Volume Problems that we couldn't hear a word in the Movie . We Cleaned Abit Expect Human Noises And Giving You Guys A RAW Audio ! We increased the volume To Let U Guys Hear ! Not To Go Deaf and its Greats ! Audio Sync Perfect !
Some Video Notes : Video Was Kinda Crappy ! We Boost it To A Natural Veiw ! We Bright it up and Level it ! Sharp a Little For Clearness ! A Experiment By BlackstaticRG ! Like it Download It


Screens: 
http://www.shotpix.com/images/29983758319506990567.png 
http://www.shotpix.com/images/61891251154950501547.png 
http://www.shotpix.com/images/33026509451614768076.png 
http://www.shotpix.com/images/27589943472088372908.png 
http://www.shotpix.com/images/53531715689132870228.png 
http://www.shotpix.com/images/09023749912235447081.png    http://www.shotpix.com/images/34353537267941614299.png


Enjoy.... !
Thanks To NiCkkkdon
Greetz to ::
IMAGiNE,Flawl3ss,BDK,Ez,DDR,Sam,absurdity,BHRG,iLLUMiNATi,ViSUALiSE,MiSTERE,Feel-Free !!

Our FB fanpage: 
